# xmcd
#
# Track frame offsets: 
#        183
#        22645
#        46083
#        64333
#        82420
#        98933
#        115095
#        130695
#        150820
#        172608
#        188720
#        213345
#        233383
#        246183
#        265558
#        280308
#
# Disc length: 3953 seconds
#
# Revision: 1
# Processed by: cddbd v1.5.2PL0 Copyright (c) Steve Scherf et al.
# Submitted via: ExactAudioCopy v0.95b3
#
DISCID=be0f6f10
DTITLE=Ottawan - D.I.S.C.O. [837 211-2]
DYEAR=1988
DGENRE=Disco
TTITLE0=D.I.S.C.O. 
TTITLE1=You're O.K.
TTITLE2=Sing Along With The Juke-Box
TTITLE3=Siesta For Two
TTITLE4=Shalala  Sond
TTITLE5=Comme Aux U.S.A.
TTITLE6=A.I.E. Is My Song
TTITLE7=Help, Get  Some Help!
TTITLE8=Hands Up (Give Me Your Heart)
TTITLE9=Doudou Rumba
TTITLE10=Crazy Muisc
TTITLE11=Hallo Rio!
TTITLE12=Shubidube Love
TTITLE13=Tant Que Durera La Nuit
TTITLE14=It's A Top Secret
TTITLE15=D.I.S.C.O. (French Version)
EXTD=
EXTT0=
EXTT1=
EXTT2=
EXTT3=
EXTT4=
EXTT5=
EXTT6=
EXTT7=
EXTT8=
EXTT9=
EXTT10=
EXTT11=
EXTT12=
EXTT13=
EXTT14=
EXTT15=
PLAYORDER=
